<svg width="384" height="379" viewBox="0 0 384 379" fill="none" xmlns="http://www.w3.org/2000/svg">
<path d="M373.043 189.5C373.043 288.535 291.873 369 191.521 369C91.1696 369 10 288.535 10 189.5C10 90.4647 91.1696 10 191.521 10C291.873 10 373.043 90.4647 373.043 189.5Z" fill="white" fill-opacity="0.1" stroke="black" stroke-width="20"/>
<path d="M192 49L163.132 99H220.868L192 49ZM192 322L220.868 272H163.132L192 322ZM187 94V277H197V94H187Z" fill="black"/>
<path d="M312 116L254.265 115.925L283.068 165.963L312 116ZM74 253L131.735 253.075L102.932 203.037L74 253ZM270.505 134.116L110.506 226.217L115.495 234.884L275.494 142.783L270.505 134.116Z" fill="black"/>
<path d="M312 253L283.068 203.037L254.265 253.075L312 253ZM74 116L102.932 165.963L131.735 115.925L74 116ZM275.494 226.217L115.495 134.116L110.506 142.783L270.505 234.884L275.494 226.217Z" fill="black"/>
<circle cx="192" cy="185" r="25" fill="black"/>
</svg>
